<?xml version="1.0" encoding="UTF-8"?>
<svg xmlns="http://www.w3.org/2000/svg" viewBox="0 0 512 512">
  <rect width="512" height="512" rx="80" ry="80" fill="#0a1628"/>
  <g transform="translate(30, 100) scale(0.9)">
    <g fill="#fff">
      <path d="M52.27,274.53c.05,7-2.27,8.88-8.67,7.18-11.72-3.11-23.37-6.43-34.25-11.94-6.24-3.17-9.19-7.63-9.28-15.3-.41-34.33,1.3-58.92,1.8-88.38.23-14.21,2.64-28.13,7.13-41.53,13.81-41.14,41-69.96,81.12-86.5,11.84-4.87,24.22-7.47,37.26-8.83-.56,3.11-2.67,3.13-4.08,3.81-13.55,6.62-25.3,15.83-35.34,26.81-24.88,27.2-35.97,59.79-35.86,96.49.13,39.39-.11,78.79.17,118.18Z"/>
      <path d="M169.79,9.39c.73-.61,1.46-1.33,2.17-2.18,3.52-4.19,9.46-6.61,15.71-7.2,1.74.22,3.44.69,5.03,1.45,3.32,1.57,9.12,6.21,8.65,10.47-.42,3.87-9.43,2.58-12.14,2.65-1.66.04-3.32.07-4.98.08-1.52.02-3.05.03-4.57.02-2.53,0-5.81.54-8.15-.63-2.24-1.11-2.39-2.89-1.72-4.66Z"/>
      <path d="M117.09,275.68c-13.54,3.18-27.07,6.32-40.59,9.53-.67.17-1.33.32-2,.48-.85.21-1.74.4-2.59.24-1.41-.27-2.46-1.51-2.93-2.87-1.3-3.78-.77-8.7-.8-12.61-.06-7.47.09-14.95.25-22.42.69-32.58-.21-65.15.25-97.74.56-39.23,16.7-70.84,47.99-94.33,17.64-13.24,38.55-20.26,59.13-27.24,8.42-2.86,18.24-2.49,27.06.95,11.06,4.32,22.07,8.82,32.88,13.74,40.78,18.56,65.09,49.97,68.98,94.74,2.48,28.39,2.29,56.87,1.89,85.37-20.59,4.23-40.91,10.03-60.98,16.67l-3.07,1.01c-27.47,9.1-55.34,16.99-83.37,24.17-13.99,3.59-28.03,6.99-42.1,10.31Z"/>
      <path d="M245,30.05c7.17-1.84,12.02.53,17.05,1.55,57.38,11.69,100.31,56.9,108.51,114.83,3.27,23.14,3.02,46.44,3.15,69.72-17.61.06-34.99,1.73-52.16,4.58-.02-24.91-.02-49.82.04-74.72.05-17.19-4.25-33.33-11.19-48.83-13.32-29.77-34.63-52.05-65.4-67.14Z"/>
      <path d="M413.56,277.69c-9.69,3.46-19.27,7.23-28.7,11.34-2.5,1.09-5,2.2-7.48,3.33-59.06,26.97-116.57,83.48-186.59,64.05-8.71-2.41-17.17-5.73-25.29-9.68-13.4-6.51-25.92-14.65-38.06-23.25-5.86-4.14-11.63-8.4-17.44-12.6-1.25-.9-13.99-13.31-13.16-13.51l18.65-4.61c10.42-2.39,21.61-4.89,23.09-5.22,36.38-8.08,73.82-17.81,108.76-30.91l.3-.09c30.17-10.2,60.57-19.64,92.44-22.53,10.67-.97,21.36-1.56,32.07-1.67,2.01-.02,4.03-.02,6,.31,7.82,1.35,15.88,7.23,22.98,10.83,7.64,3.87,15.27,7.74,22.91,11.62,8.64,4.38,18.48,8.65,26.45,14.03-12.4,3.47-24.74,4.2-36.92,8.54Z"/>
      <path d="M503.53,308.05c-2.57,6.08-7.35,10.38-14.22,12.75-14.4,4.96-36.81,1.22-55.78-9.3-9.67-5.36-18.68-10.32-26.84-14.76.24-.09.48-.18.73-.28.33-.12.67-.25,1.01-.38l.6-.22c.63-.24,1.27-.48,1.91-.7,18.16-6.56,35.36-10.02,51.13-10.25,12.77-.19,24.13,1.84,32,5.73l.5.28h.04c8.81,4.54,11.8,10.31,8.91,17.14Z"/>
    </g>
  </g>
</svg>
